<?xml version="1.0" encoding="iso-8859-1"?>
<!-- Generator: Adobe Illustrator 22.0.1, SVG Export Plug-In . SVG Version: 6.00 Build 0)  -->
<svg version="1.1" id="&#x56FE;&#x5C42;_1" xmlns="http://www.w3.org/2000/svg" xmlns:xlink="http://www.w3.org/1999/xlink" x="0px"
	 y="0px" viewBox="0 0 128 128" style="enable-background:new 0 0 128 128;" xml:space="preserve">
<path style="fill:#4265D8;" d="M13,87.357l3.214-3.646c5.191,6.243,12.662,10.281,21.002,10.281c10.925,0,17.81-6.22,17.81-15.279
	c0-9.497-5.832-12.52-12.879-15.89l-10.849-5.169c-6.233-2.92-14.519-7.651-14.519-18.913C16.78,27.697,25.684,20,37.586,20
	c8.622,0,15.572,4.166,19.938,9.104l-2.888,3.531c-4.192-4.72-9.882-7.812-17.049-7.812c-9.448,0-15.79,5.366-15.79,13.594
	c0,8.874,7.145,12.22,12.38,14.667l10.827,5.135c8.014,3.797,15.062,8.494,15.062,20.125c0,11.656-9.013,20.471-22.891,20.471
	C26.705,98.814,18.647,94.106,13,87.357z"/>
<path style="fill:#389826;" d="M72,60.262C72,36.755,83.512,22,100.436,22c7.775,0,13.753,4.296,17.308,8.861l-2.727,3.464
	c-3.595-4.566-8.461-7.625-14.541-7.625c-14.582,0-23.608,12.934-23.608,33.492c0,20.605,8.926,33.921,23.224,33.921
	c6.867,0,11.997-3.125,16.824-9.131l2.726,3.239c-5.1,6.591-11.128,10.593-19.791,10.593C83.451,98.814,72,83.811,72,60.262z"/>
<g>
	<path style="fill:#CB3D34;" d="M75.5,97v-1h-1.045c-0.077-0.455-0.254-0.875-0.512-1.236l0.738-0.738l-0.707-0.707l-0.738,0.738
		c-0.361-0.257-0.781-0.435-1.236-0.512V92.5h-1v1.045c-0.455,0.077-0.875,0.254-1.236,0.512l-0.738-0.738l-0.707,0.707l0.738,0.738
		c-0.257,0.361-0.435,0.781-0.512,1.236H67.5v1h1.045c0.077,0.455,0.254,0.875,0.512,1.236l-0.738,0.738l0.707,0.707l0.738-0.738
		c0.361,0.257,0.781,0.435,1.236,0.512v1.045h1v-1.045c0.455-0.077,0.875-0.254,1.236-0.512l0.738,0.738l0.707-0.707l-0.738-0.738
		c0.257-0.361,0.435-0.781,0.512-1.236H75.5z M71.5,98c-0.828,0-1.5-0.672-1.5-1.5s0.672-1.5,1.5-1.5s1.5,0.672,1.5,1.5
		S72.328,98,71.5,98z"/>
	<polygon style="fill:#9558B2;" points="117.5,100 117,100.667 116,100.667 115.5,100 114.5,100 114,100.667 113,100.667 112.5,100 
		111.5,100 111,100.667 110,100.667 109.5,100 108.5,100 108,100.667 107,100.667 106.5,100 105.5,100 105,100.667 104,100.667 
		103.5,100 102.5,100 102,100.667 101,100.667 100.5,100 99.5,100 99,100.667 98,100.667 97.5,100 96.5,100 96,100.667 95,100.667 
		94.5,100 93.5,100 93,100.667 92,100.667 91.5,100 90.5,100 90,100.667 89,100.667 88.5,100 87.5,100 87,100.667 86,100.667 
		85.5,100 84.5,100 84,100.667 83,100.667 82.5,100 81.5,100 81,100.667 80,100.667 79.5,100 78.5,100 78,100.667 77,100.667 
		76.5,100 75.5,100 75,100.667 74,100.667 73.5,100 72.5,100 72,100.667 71,100.667 70.5,100 69.5,100 69,100.667 68,100.667 
		67.5,100 66.5,100 66,100.667 65,100.667 64.5,100 63.5,100 63,100.667 62,100.667 61.5,100 60.5,100 60,100.667 59,100.667 
		58.5,100 57.5,100 57,100.667 56,100.667 55.5,100 54.5,100 54,100.667 53,100.667 52.5,100 51.5,100 51,100.667 50,100.667 
		49.5,100 48.5,100 48,100.667 47,100.667 46.5,100 45.5,100 45,100.667 44,100.667 43.5,100 42.5,100 42,100.667 41,100.667 
		40.5,100 39.5,100 39,100.667 38,100.667 37.5,100 36.5,100 36,100.667 35,100.667 34.5,100 33.5,100 33,100.667 32,100.667 
		31.5,100 30.5,100 30,100.667 29,100.667 28.5,100 27.5,100 27,100.667 26,100.667 25.5,100 24.5,100 24,100.667 23,100.667 
		22.5,100 21.5,100 21,100.667 20,100.667 19.5,100 18,100 16,102 119,102 119,100 	"/>
</g>
</svg>
