<svg id="图层_1" data-name="图层 1" xmlns="http://www.w3.org/2000/svg" viewBox="0 0 96.64 100.72"><defs><style>.cls-1{fill:#3861d6;}.cls-2{fill:#389826;}.cls-3{fill:#cb3d34;}.cls-4{fill:#9558b2;}</style></defs><path class="cls-1" d="M0,77l3.21-3.64a27.4,27.4,0,0,0,21,10.28C35.14,83.63,42,77.41,42,68.35c0-9.5-5.84-12.52-12.88-15.89L18.3,47.29C12.06,44.37,3.78,39.64,3.78,28.38c0-11,8.9-18.74,20.81-18.74a26.63,26.63,0,0,1,19.93,9.1l-2.88,3.53a22.24,22.24,0,0,0-17-7.81c-9.45,0-15.79,5.36-15.79,13.59,0,8.88,7.14,12.22,12.38,14.67L32,47.85c8,3.8,15.06,8.5,15.06,20.13s-9,20.47-22.89,20.47A30.7,30.7,0,0,1,0,77Z"/><path class="cls-2" d="M49,49.9c0-23.51,11.51-38.26,28.44-38.26a22.06,22.06,0,0,1,17.3,8.86L92,24c-3.6-4.57-8.46-7.62-14.54-7.62-14.59,0-23.61,12.93-23.61,33.49s8.92,33.92,23.22,33.92c6.87,0,12-3.13,16.83-9.13l2.72,3.24c-5.1,6.59-11.13,10.59-19.79,10.59C60.45,88.45,49,73.45,49,49.9Z"/><path class="cls-3" d="M15.43,7c.3-.2.6-.42.92-.61l1-.54c.66-.31,1.33-.61,2-.87,1.36-.55,2.75-.93,4.15-1.35A80.19,80.19,0,0,1,32,1.89c2.85-.47,5.71-.7,8.58-.95S46.28.68,49.16.63s5.74.13,8.62.3,5.74.53,8.6,1c1.43.26,2.85.53,4.27.85s2.82.74,4.22,1.18A22.53,22.53,0,0,1,82.7,8.06l-.29.44A25.55,25.55,0,0,0,74.5,5.66a81.47,81.47,0,0,0-8.38-1.28,165.73,165.73,0,0,0-17-.76c-5.66,0-11.33.16-17,.61-2.82.23-5.64.52-8.43.95-1.4.23-2.8.46-4.17.79a17.83,17.83,0,0,0-4,1.3Z"/><path class="cls-3" d="M73.73,8.08a.52.52,0,0,1,.56-.48l8,.63L79.49.71a.52.52,0,0,1,.3-.68.53.53,0,0,1,.68.31l3.1,8.3a.51.51,0,0,1-.07.5.51.51,0,0,1-.46.2l-8.83-.69a.54.54,0,0,1-.48-.57Z"/><path class="cls-4" d="M87.61,92.27a12.81,12.81,0,0,1-4.21,2.67c-1.52.65-3.08,1.17-4.64,1.66a79.89,79.89,0,0,1-9.5,2.13c-3.19.57-6.4.87-9.62,1.17s-6.44.32-9.67.38-6.46-.17-9.69-.37-6.46-.66-9.66-1.28c-1.6-.3-3.2-.65-4.78-1s-3.16-.91-4.72-1.44a26.72,26.72,0,0,1-8.68-4.77l.34-.52a30.89,30.89,0,0,0,8.82,3.36A84.48,84.48,0,0,0,31,95.82a162.94,162.94,0,0,0,19,1c6.35,0,12.71-.2,19-.78,3.16-.3,6.31-.67,9.44-1.22,1.56-.26,3.11-.6,4.64-1A13.4,13.4,0,0,0,87.39,92Z"/><path class="cls-4" d="M22.92,91.17a.62.62,0,0,1-.65.58l-9.35-.58,3.43,8.72a.61.61,0,0,1-1.14.45l-3.78-9.62a.6.6,0,0,1,.07-.58.61.61,0,0,1,.53-.26l10.32.64a.6.6,0,0,1,.32.12A.63.63,0,0,1,22.92,91.17Z"/></svg>